<?xml version="1.0" standalone="no"?>
<!DOCTYPE svg PUBLIC "-//W3C//DTD SVG 20010904//EN"
 "http://www.w3.org/TR/2001/REC-SVG-20010904/DTD/svg10.dtd">
<svg version="1.0" xmlns="http://www.w3.org/2000/svg"
 width="530.000000pt" height="471.000000pt" viewBox="0 0 530.000000 471.000000"
 preserveAspectRatio="xMidYMid meet">

<g transform="translate(0.000000,471.000000) scale(0.100000,-0.100000)"
fill="#000000" stroke="none">
<path d="M1826 3794 c-156 -28 -272 -61 -671 -191 -259 -84 -401 -132 -525
-178 -36 -13 -117 -43 -180 -66 -63 -22 -118 -43 -123 -46 -15 -9 29 -66 80
-105 83 -63 79 -64 616 116 386 129 471 155 488 146 29 -16 20 -42 -21 -61
-19 -9 -114 -42 -210 -74 -181 -60 -605 -201 -628 -210 -10 -4 -9 -12 5 -36
22 -39 67 -73 115 -88 45 -15 73 -8 253 60 72 27 153 58 180 68 28 11 102 38
165 61 63 23 138 51 167 63 43 17 55 18 68 7 40 -33 1 -66 -145 -119 -63 -24
-135 -51 -160 -61 -25 -10 -117 -44 -205 -76 -88 -31 -164 -60 -168 -64 -5 -4
6 -24 24 -44 85 -98 150 -90 521 59 l67 27 21 66 c28 87 60 139 122 201 52 53
142 102 222 122 25 6 50 16 55 23 5 6 11 61 13 121 3 104 5 114 41 182 20 40
37 78 37 86 0 30 -94 35 -224 11z"/>
<path d="M3153 3804 c-20 -9 -15 -31 25 -112 35 -73 37 -81 41 -194 2 -85 7
-120 17 -129 8 -6 14 -9 14 -6 0 3 33 -4 72 -15 94 -26 160 -70 223 -144 67
-79 68 -80 114 -187 14 -32 29 -51 48 -58 337 -136 418 -152 491 -99 44 32 69
68 55 80 -7 6 -48 23 -148 60 -11 4 -38 15 -60 23 -22 8 -98 37 -170 62 -197
72 -251 92 -273 104 -28 15 -38 50 -19 68 14 14 43 5 274 -82 541 -204 519
-198 576 -169 40 20 107 84 107 101 0 19 -18 25 -450 168 -212 70 -395 134
-407 141 -28 18 -29 40 -3 54 16 8 96 -15 422 -126 222 -74 439 -146 482 -159
111 -33 155 -23 234 55 64 63 61 69 -58 112 -41 14 -147 52 -235 83 -157 56
-550 188 -713 240 -213 68 -461 125 -562 131 -47 2 -91 1 -97 -2z"/>
<path d="M1442 2874 c-29 -13 -88 -35 -130 -49 -90 -29 -103 -37 -94 -51 17
-24 73 -54 103 -54 35 0 199 58 211 75 9 12 10 67 2 89 -8 21 -29 19 -92 -10z"/>
<path d="M3710 2828 c0 -57 7 -66 76 -95 160 -68 151 -65 197 -45 23 10 48 26
55 35 15 18 8 37 -12 37 -8 0 -78 25 -157 55 -79 30 -147 55 -151 55 -4 0 -8
-19 -8 -42z"/>
<path d="M734 834 c-61 -33 -91 -64 -123 -134 -21 -46 -26 -70 -25 -140 0
-127 45 -210 142 -259 53 -27 142 -30 196 -7 34 14 40 14 59 1 15 -10 47 -15
99 -15 l78 0 0 94 c0 72 4 96 15 106 11 9 15 27 13 54 l-3 41 -100 5 c-55 3
-116 3 -135 0 -32 -5 -35 -8 -38 -42 -3 -30 1 -40 22 -54 31 -20 33 -39 7 -54
-34 -18 -88 -12 -115 13 -62 58 -53 218 15 252 61 32 118 7 134 -58 4 -15 11
-29 15 -32 4 -2 37 -2 74 2 l66 6 0 118 0 119 -62 0 c-40 0 -67 -5 -78 -15
-14 -13 -21 -13 -55 5 -58 29 -139 27 -201 -6z"/>
<path d="M1353 852 l-103 -3 0 -49 c0 -39 4 -52 20 -60 18 -10 20 -21 20 -120
0 -60 5 -133 11 -162 24 -113 97 -175 216 -185 92 -7 149 9 194 57 56 59 74
122 74 269 0 117 1 124 23 138 17 12 22 25 22 57 0 23 -5 47 -11 53 -9 9 -227
8 -237 -2 -2 -2 -3 -22 -4 -46 0 -33 4 -46 21 -57 19 -13 21 -23 21 -133 0
-158 -12 -189 -76 -189 -58 0 -68 24 -72 175 -4 127 -3 134 17 144 17 10 21
21 21 61 0 37 -4 50 -14 50 -8 0 -20 1 -28 3 -7 1 -59 1 -115 -1z"/>
<path d="M2088 852 l-78 -3 0 -44 c0 -24 5 -55 11 -67 8 -19 2 -51 -30 -160
-47 -161 -54 -176 -83 -180 -20 -3 -23 -10 -26 -60 l-3 -58 130 0 129 0 4 51
c3 45 1 51 -22 62 -14 7 -25 19 -25 27 0 12 17 16 83 18 75 3 82 1 82 -17 0
-20 -18 -31 -52 -31 -17 0 -19 -5 -16 -52 l4 -53 165 0 164 0 2 53 c2 51 1 53
-27 59 -34 6 -36 10 -106 243 -69 231 -57 210 -123 211 -31 1 -67 2 -81 3 -14
1 -60 0 -102 -2z m118 -249 c3 -18 4 -40 0 -48 -7 -19 -40 -19 -60 0 -13 14
-13 20 -1 56 8 22 18 45 21 51 10 16 32 -18 40 -59z"/>
<path d="M2594 851 c-2 -2 -4 -26 -4 -52 0 -38 4 -51 20 -59 19 -10 20 -21 20
-170 0 -149 -1 -161 -20 -172 -16 -10 -20 -24 -20 -66 l0 -53 133 3 132 3 3
48 c3 42 0 51 -23 69 -22 17 -26 27 -23 62 2 31 8 42 22 45 28 5 46 -26 46
-78 0 -55 24 -107 63 -135 42 -31 148 -30 178 1 21 21 52 128 42 146 -8 14
-63 8 -63 -8 0 -33 -20 -12 -31 31 -8 30 -21 53 -40 67 -16 11 -29 25 -29 29
0 5 18 26 40 47 34 32 40 44 40 80 0 88 -49 144 -135 156 -50 6 -345 11 -351
6z m304 -123 c7 -7 12 -29 12 -50 0 -43 -32 -72 -72 -66 -20 3 -23 10 -26 52
-2 27 -1 55 2 62 7 17 67 19 84 2z"/>
<path d="M3274 853 c-45 -3 -52 -7 -56 -27 -8 -42 3 -82 25 -91 12 -6 22 -18
21 -27 0 -10 -1 -81 -2 -158 l-2 -140 -26 -10 c-23 -9 -25 -14 -21 -62 l4 -53
164 0 c198 0 242 10 304 70 62 61 85 118 87 214 0 71 -3 86 -29 133 -37 65
-92 109 -164 130 -56 17 -215 28 -305 21z m240 -125 c14 -6 33 -22 42 -36 23
-35 31 -152 14 -203 -17 -50 -63 -91 -99 -87 l-26 3 -3 155 c-1 85 0 160 2
167 7 16 37 17 70 1z"/>
<path d="M4075 850 l-240 -5 -3 -94 c-2 -60 1 -98 9 -107 12 -15 56 -18 107
-8 29 6 31 10 34 53 l3 46 45 3 c66 3 79 -9 49 -46 -84 -103 -190 -230 -207
-248 -32 -34 -42 -60 -42 -113 l0 -51 270 0 270 0 0 110 0 111 -72 -3 -73 -3
-5 -45 -5 -45 -49 -3 c-27 -2 -53 1 -58 6 -8 8 45 78 141 187 120 137 121 139
121 198 0 55 -11 71 -43 65 -7 -1 -120 -5 -252 -8z"/>
</g>
</svg>
